/* XPM */
static char * nc100_xpm[] = {
"48 33 17 1",
" 	c None",
".	c #000000",
"+	c #C7CFD8",
"@	c #6E7885",
"#	c #565D5E",
"$	c #007F7F",
"%	c #B2B2B2",
"&	c #E5E5E5",
"*	c #191919",
"=	c #FFFFFF",
"-	c #FFFF00",
";	c #FF0000",
">	c #00FF00",
",	c #00FFFF",
"'	c #827F00",
")	c #7F0000",
"!	c #007F00",
"................................................",
".+++++@+@+@@@@@@@@@@@@@@@@@@@@@@@@@@@@@@@@@@@@@.",
".+@@..................#@@@@@@@@@@@@@#@#@#@..@@#.",
".+@@..$...$....@.......#@@@@@@@@@@@@@#@#@@..@@#.",
".@@@.$$$$$$.@@@.@@@.@@..#@@@@@@@@@@@@@@@@@@@@@#.",
".+@@........@........................$$.$$..@@#.",
".@@@..................................$$....@@#.",
".+@@..%%%%%%%%%%%%%%%%%%%%%%%%%%%%%%%%%%%%..@@#.",
".@@@..%&&&&&&&&&&&&&&&&&&&&&&&&&&&&&&&&&&&..@@#.",
".@@@..%&&&&&&&&&&&&&&&&&&&&&&&&&&&&&&&&&&&..@@#.",
".@@@..%&&&&&&&&&&&&&&&&&&&&&&&&&&&&&&&&&&&..@@#.",
".@@@..%&&&&&&&&&&&&&&&&&&&&&&&&&&&&&&&&&&&..@@#.",
".@@@........................................@@#.",
".@@@........................................@@#.",
".@@#@#@#@#@#@#@#@#@#@#@#@#@#@#@#@#@#@#@#@#@#@##.",
".##############################################.",
"................................................",
".+++@++@++@++@++@++@++@++@++@++@++@++@++@++@++@.",
".+@@.+@.+@.+@.+@.+@.+@.+@.+@.+@.+@.+@.+@.+@.+@..",
".@...@..@..@..@..@..@..@..@..@..@..@..@..@..@...",
".++++@++@++@++@++@++@++@++@++@++@++@++@++@++++@.",
".+@@@.+@.+@.+@.+@.+@.+@.+@.+@.+@.+@.+@.+@.+@@@..",
".@....@..@..@..@..@..@..@..@..@..@..@..@..@*@@..",
".+++++@++@++@++@++@++@++@++@++@++@++@++@++@+@@..",
".+@@@@.+@.+@.+@.+@.+@.+@.+@.+@.+@.+@.+@.+@.+@@..",
".@.....@..@..@..@..@..@..@..@..@..@..@..@..@....",
".++++++@++@++@++@++@++@++@++@++@++@++@++@++@++@.",
".+@@@@@.+@.+@.+@.+@.+@.+@.+@.+@.+@.+@.+@.+@.+@..",
".@......@..@..@..@..@..@..@..@..@..@..@..@..@...",
".=====-++@++@++++++++++++++++++@++@++@==;==>==,.",
".=----'+@.+@.+@@@@@@@@@@@@@@@@@.+@.+@.=;)=>!=,$.",
".-'''''@..@..@..................@..@..;))>!!,$$.",
"................................................"};
